<mxfile host="app.diagrams.net" modified="2023-05-18T12:16:36.485Z" agent="Mozilla/5.0 (Macintosh; Intel Mac OS X 10_15_7) AppleWebKit/537.36 (KHTML, like Gecko) Chrome/113.0.0.0 Safari/537.36" version="21.3.1" etag="EQl5ZiA9scVqheO95AxF" type="github">
  <diagram name="第 1 页" id="B027r9Qg4pX3CQFbiq8L">
    <mxGraphModel>
      <root>
        <mxCell id="0" />
        <mxCell id="1" parent="0" />
      </root>
    </mxGraphModel>
  </diagram>
</mxfile>
